
<?xml version="1.0" encoding="iso-8859-1"?>
<!-- Generator: Adobe Illustrator 22.1.0, SVG Export Plug-In . SVG Version: 6.00 Build 0)  -->
<svg version="1.1" id="Layer_1" xmlns="http://www.w3.org/2000/svg" xmlns:xlink="http://www.w3.org/1999/xlink" x="0px" y="0px"
     viewBox="0 0 150 150" style="enable-background:new 0 0 150 150;" xml:space="preserve">
<circle style="fill:none;stroke:#414042;stroke-width:4;stroke-miterlimit:10;" cx="75.006" cy="75" r="72.5"/>
    <g>
	<path style="fill:none;stroke:#414042;stroke-width:4;stroke-miterlimit:10;" d="M97.779,67.152
		c-4.721-4.049-10.387-5.262-17.404-2.429c-3.776,1.754-7.943,1.993-9.983,0.949c0,0-8.095-5.803-18.482,1.885
		c-10.387,7.691-9.442,27.925,2.429,43.304c3.644,4.588,7.152,7.96,14.841,4.588c5.396-2.023,9.041-1.889,12.548,0.134
		c3.506,2.023,7.955,2.563,12.678-3.104C99.13,106.812,114.234,84.825,97.779,67.152z"/>
        <path style="fill:none;stroke:#414042;stroke-width:4;stroke-miterlimit:10;" d="M95.227,33.002
		c-24.554,5.039-19.921,25.895-19.921,25.895C95.953,54.273,94.718,42.757,95.227,33.002z"/>
</g>
</svg>