
<svg xmlns="http://www.w3.org/2000/svg" viewBox="0 0 512 512" style="enable-background:new 0 0 512 512" xml:space="preserve" width="32" height="32"><path d="M503.916 153.88a8.084 8.084 0 0 0 8.084-8.084v-31.459c0-20.619-16.775-37.394-37.393-37.394H37.393C16.775 76.942 0 93.718 0 114.336v283.326c0 20.62 16.775 37.395 37.393 37.395h437.212c20.619 0 37.393-16.776 37.393-37.395V172.024a8.084 8.084 0 0 0-16.168 0v225.637c0 11.705-9.522 21.227-21.225 21.227H37.393c-11.703 0-21.225-9.522-21.225-21.227V114.336c0-11.704 9.522-21.226 21.225-21.226h437.212c11.703 0 21.225 9.522 21.225 21.226v31.459a8.087 8.087 0 0 0 8.086 8.085z" style="fill:#686769;stroke:#686769"/><path d="M387.84 171.529c-12.455.001-24.669 3.702-35.016 10.5-10.344-6.798-22.558-10.5-35.013-10.5-35.137 0-63.722 28.587-63.722 63.724 0 35.136 28.586 63.721 63.722 63.721 12.458 0 24.672-3.7 35.013-10.499 10.345 6.798 22.559 10.499 35.016 10.499 35.137 0 63.722-28.585 63.722-63.721 0-35.138-28.586-63.724-63.722-63.724zm-70.029 111.276c-26.221 0-47.553-21.332-47.553-47.552 0-26.222 21.333-47.556 47.553-47.556 7.875 0 15.403 1.869 22.178 5.463l-.001.001c-.025.028-.047.058-.072.086a63.294 63.294 0 0 0-2.014 2.416c-.217.273-.424.552-.636.829a61.789 61.789 0 0 0-2 2.748 59.971 59.971 0 0 0-1.2 1.817c-.196.308-.397.615-.587.927a62.565 62.565 0 0 0-1.323 2.267c-.098.177-.205.349-.302.527-.514.943-1.001 1.9-1.467 2.868-.127.265-.244.535-.367.801a62.806 62.806 0 0 0-.956 2.157c-.146.348-.285.698-.425 1.05-.267.67-.523 1.346-.766 2.026-.127.356-.255.71-.377 1.068-.254.75-.49 1.507-.717 2.268-.083.278-.174.554-.252.834a62.994 62.994 0 0 0-.803 3.139c-.046.204-.082.411-.127.614a63.368 63.368 0 0 0-.51 2.583c-.064.362-.117.725-.174 1.09a64.051 64.051 0 0 0-.44 3.354 65.996 65.996 0 0 0-.191 2.275c-.024.345-.053.69-.07 1.036-.056 1.099-.093 2.202-.093 3.311s.036 2.212.093 3.311c.017.347.047.692.07 1.038.052.76.112 1.518.191 2.272a65.654 65.654 0 0 0 .439 3.353c.057.364.111.73.175 1.093.151.861.322 1.717.508 2.57.045.209.082.419.129.627a62.48 62.48 0 0 0 .802 3.133c.081.286.174.566.258.85.224.755.459 1.505.71 2.249.123.362.252.721.382 1.081.242.675.496 1.345.761 2.01.141.355.282.71.43 1.062.302.72.62 1.431.949 2.138.126.273.245.548.375.818.465.966.951 1.921 1.464 2.862.099.182.208.359.308.54.424.76.86 1.512 1.316 2.255.192.313.391.62.589.929a62.01 62.01 0 0 0 3.206 4.573c.209.272.413.548.627.816a63.213 63.213 0 0 0 2.057 2.467c.01.011.018.023.028.033.002.002.004.004.005.008-6.775 3.597-14.304 5.465-22.18 5.465zm47.485-45.057c-.014.264-.038.526-.055.789a47.651 47.651 0 0 1-.142 1.696c-.031.303-.069.604-.106.905a48.796 48.796 0 0 1-.37 2.478 49.128 49.128 0 0 1-.322 1.634c-.056.261-.107.523-.167.781a46.52 46.52 0 0 1-.554 2.161c-.019.068-.034.137-.054.204a46.343 46.343 0 0 1-.737 2.33c-.078.225-.164.447-.245.672a49.268 49.268 0 0 1-.612 1.618c-.109.269-.222.536-.336.803a47.41 47.41 0 0 1-1.775 3.721c-.127.239-.25.481-.382.718-.33.595-.675 1.182-1.029 1.763-.069.112-.131.227-.2.338-.43.69-.88 1.368-1.345 2.035-.132.189-.272.372-.406.559-.342.474-.688.946-1.048 1.409-.184.237-.374.469-.563.703a48.056 48.056 0 0 1-1.633 1.92c-.127.141-.261.278-.39.418-.128-.139-.262-.275-.388-.416a49.335 49.335 0 0 1-1.631-1.917c-.191-.236-.383-.472-.569-.711a47.505 47.505 0 0 1-1.033-1.388c-.139-.194-.285-.384-.421-.58a46.718 46.718 0 0 1-1.34-2.028c-.076-.121-.143-.246-.218-.366a47.811 47.811 0 0 1-1.013-1.735c-.135-.243-.261-.489-.39-.734a41.307 41.307 0 0 1-1.126-2.263 48.44 48.44 0 0 1-.636-1.435c-.116-.275-.234-.549-.345-.826a44.606 44.606 0 0 1-.6-1.588c-.084-.233-.174-.464-.254-.698-.263-.767-.51-1.54-.734-2.322-.023-.08-.041-.162-.064-.241a47.558 47.558 0 0 1-.544-2.125c-.061-.263-.113-.529-.169-.794a46.357 46.357 0 0 1-.32-1.62c-.054-.302-.102-.606-.15-.909a48.177 48.177 0 0 1-.22-1.57c-.038-.304-.076-.607-.107-.912a49.488 49.488 0 0 1-.141-1.689c-.018-.265-.042-.529-.056-.795a48.064 48.064 0 0 1-.069-2.494c0-.835.027-1.665.069-2.494.014-.266.038-.53.056-.796.039-.565.083-1.129.141-1.689.031-.305.069-.608.107-.912a47.795 47.795 0 0 1 .37-2.479c.096-.543.205-1.082.32-1.62.056-.265.108-.53.169-.794.165-.713.346-1.42.543-2.122.023-.081.041-.164.064-.245.224-.78.471-1.553.734-2.321.081-.236.171-.468.255-.702.192-.531.389-1.061.599-1.585.112-.278.23-.553.346-.828.204-.481.415-.958.635-1.431.128-.277.258-.553.391-.827.236-.483.482-.96.734-1.435.13-.246.258-.494.392-.737.324-.585.663-1.162 1.012-1.734.074-.122.142-.247.218-.368.428-.688.876-1.362 1.34-2.029.135-.194.278-.382.416-.573.338-.471.683-.939 1.039-1.398.183-.236.373-.469.562-.702a46.372 46.372 0 0 1 1.63-1.918c.128-.143.263-.28.393-.422.131.142.267.281.398.426a45.056 45.056 0 0 1 1.627 1.914c.189.233.378.466.562.702.356.458.7.926 1.038 1.396.138.192.282.38.417.575.463.665.911 1.34 1.339 2.026.08.127.151.259.23.387.345.565.68 1.135 1 1.713.137.248.266.499.399.749a45.356 45.356 0 0 1 1.124 2.259c.218.47.428.944.631 1.421.118.278.237.555.349.835.209.521.405 1.047.596 1.575.086.237.178.473.26.711.263.765.509 1.536.733 2.315.026.088.045.179.07.267.194.694.374 1.393.537 2.096.061.267.114.538.171.806.114.535.222 1.071.318 1.611.054.302.102.606.15.909.082.522.155 1.044.22 1.57.038.304.075.608.107.913.058.56.102 1.123.141 1.688.018.265.042.53.056.797a46.096 46.096 0 0 1 .001 5.001zm22.545 45.057c-7.876 0-15.405-1.868-22.18-5.462l.004-.005a64.732 64.732 0 0 0 2.083-2.499c.217-.273.424-.551.636-.827.453-.59.898-1.184 1.329-1.787a63.357 63.357 0 0 0 1.864-2.765c.202-.317.406-.632.603-.951a63.96 63.96 0 0 0 1.287-2.205c.111-.197.23-.391.337-.59.51-.936.994-1.885 1.456-2.846.136-.282.26-.57.391-.855.321-.695.635-1.394.931-2.101.151-.36.295-.723.44-1.086.262-.658.512-1.318.751-1.984.132-.366.264-.733.389-1.103.248-.732.479-1.471.7-2.213.088-.295.184-.589.268-.885.292-1.033.559-2.072.799-3.12.05-.217.087-.437.135-.654.183-.843.354-1.69.502-2.543.065-.368.119-.737.177-1.107a64.879 64.879 0 0 0 .439-3.348c.078-.752.139-1.508.19-2.266.024-.348.053-.695.071-1.044.056-1.098.093-2.201.093-3.309s-.036-2.212-.093-3.311c-.018-.347-.047-.692-.071-1.038a56.157 56.157 0 0 0-.324-3.439 65.654 65.654 0 0 0-.306-2.186c-.057-.365-.111-.731-.175-1.094a63.413 63.413 0 0 0-.509-2.577c-.045-.206-.081-.413-.128-.618-.24-1.054-.51-2.1-.803-3.137-.08-.281-.17-.558-.254-.839a63.91 63.91 0 0 0-.716-2.264c-.121-.357-.249-.711-.376-1.066-.245-.681-.5-1.358-.769-2.03-.139-.35-.278-.7-.424-1.047a59.746 59.746 0 0 0-.96-2.164c-.122-.264-.237-.53-.363-.792a64.254 64.254 0 0 0-1.47-2.875c-.092-.168-.193-.332-.287-.5a62.173 62.173 0 0 0-1.341-2.297c-.186-.304-.38-.601-.572-.902a62.851 62.851 0 0 0-1.871-2.778 63.664 63.664 0 0 0-1.365-1.836c-.202-.262-.398-.526-.603-.785a64.159 64.159 0 0 0-2.096-2.515c6.776-3.594 14.305-5.463 22.179-5.463 26.222 0 47.555 21.334 47.555 47.556 0 26.221-21.333 47.552-47.553 47.552zM169.658 312.565H66.715a8.084 8.084 0 0 0-8.084 8.084 8.082 8.082 0 0 0 8.084 8.084h102.943a8.082 8.082 0 0 0 8.084-8.084 8.082 8.082 0 0 0-8.084-8.084zM169.658 346.279H66.715a8.083 8.083 0 0 0-8.084 8.084 8.082 8.082 0 0 0 8.084 8.084h102.943a8.082 8.082 0 0 0 8.084-8.084 8.082 8.082 0 0 0-8.084-8.084zM161.611 177.449H73.794c-8.36 0-15.162 6.802-15.162 15.161v68.436c-.001 8.36 6.802 15.162 15.162 15.162h87.817c8.36 0 15.162-6.802 15.162-15.162V192.61c0-8.36-6.802-15.161-15.162-15.161zm-67.443 82.59H74.799v-11.36h19.369v11.36zm0-27.529H74.799v-11.364h19.369v11.364zm0-27.533H74.799v-11.36h19.369v11.36zm66.436 55.062h-50.268v-66.421h18.683v46.977a8.083 8.083 0 0 0 8.084 8.084h23.501v11.36zm0-27.529h-15.417v-11.364h15.417v11.364zm0-27.533h-15.417v-11.36h15.417v11.36z" style="fill:#686769;stroke:#686769"/></svg>