<svg width="150" height="150" viewBox="0 0 150 150" fill="none" xmlns="http://www.w3.org/2000/svg">
    <g clip-path="url(#clip0_118_146)">
        <path fill-rule="evenodd" clip-rule="evenodd" d="M56.9851 57.8895C58.0125 57.3446 59.3629 57.0381 60.7999 57.0381H89.1999C90.637 57.0381 91.9874 57.3449 93.0148 57.89C93.9979 58.4115 94.9319 59.3032 94.9319 60.5481C94.9319 61.7929 93.9979 62.6847 93.0148 63.2062C91.9874 63.7513 90.637 64.0581 89.1999 64.0581H60.7999C59.3628 64.0581 58.0124 63.7513 56.985 63.2062C56.0018 62.6847 55.0679 61.7929 55.0679 60.5481C55.0679 59.3028 56.0017 58.4111 56.9851 57.8895ZM57.9222 59.6564C57.1931 60.0431 57.0679 60.4063 57.0679 60.5481C57.0679 60.6892 57.1929 61.0525 57.9223 61.4395C58.6074 61.8029 59.623 62.0581 60.7999 62.0581H89.1999C90.3768 62.0581 91.3924 61.8029 92.0775 61.4395C92.8068 61.0525 92.9319 60.6892 92.9319 60.5481C92.9319 60.4069 92.8068 60.0437 92.0775 59.6567C91.3924 59.2933 90.3768 59.0381 89.1999 59.0381H60.7999C59.6228 59.0381 58.6072 59.2931 57.9222 59.6564Z" fill="#414042"/>
        <path fill-rule="evenodd" clip-rule="evenodd" d="M26.4829 32.623H123.516V49.919H119.429V120.45H30.5719V49.919H26.4829V32.623ZM33.5719 49.919V117.45H116.429V49.919H33.5719ZM29.4829 35.623V46.919H120.516V35.623H29.4829Z" fill="#414042"/>
        <path fill-rule="evenodd" clip-rule="evenodd" d="M75 0.5C33.8548 0.5 0.5 33.8548 0.5 75C0.5 116.145 33.8548 149.5 75 149.5C116.145 149.5 149.5 116.145 149.5 75C149.5 33.8548 116.145 0.5 75 0.5ZM4.5 75C4.5 36.0639 36.0639 4.5 75 4.5C113.936 4.5 145.5 36.0639 145.5 75C145.5 113.936 113.936 145.5 75 145.5C36.0639 145.5 4.5 113.936 4.5 75Z" fill="#414042"/>
    </g>
    <defs>
        <clipPath id="clip0_118_146">
            <rect width="150" height="150" fill="white"/>
        </clipPath>
    </defs>
</svg>