
<svg xmlns="http://www.w3.org/2000/svg" viewBox="0 0 512 512" style="enable-background:new 0 0 512 512" xml:space="preserve" width="32" height="32"><path d="M437.019 74.982C388.667 26.628 324.379 0 256 0S123.333 26.628 74.981 74.982C26.628 123.333 0 187.621 0 256s26.628 132.667 74.981 181.018C123.333 485.372 187.621 512 256 512s132.667-26.628 181.019-74.981S512 324.379 512 256s-26.628-132.667-74.981-181.018zM256 495.832C123.756 495.832 16.168 388.244 16.168 256S123.756 16.168 256 16.168 495.832 123.756 495.832 256 388.244 495.832 256 495.832z" style="fill:#686769;stroke:#686769"/><path d="M375.743 186.891c-10.023-11.6-23.422-19.717-38.186-23.234-7.636-32-36.473-55.867-70.779-55.867h-68.636a28.95 28.95 0 0 0-28.575 24.034l-40.101 230.581a8.083 8.083 0 0 0 7.964 9.469h54.259l-8.31 44.321a8.086 8.086 0 0 0 7.946 9.574H256a8.085 8.085 0 0 0 7.954-6.638l20.35-111.931h36.369c40.119 0 72.758-32.639 72.758-72.758a72.729 72.729 0 0 0-17.688-47.551zm-55.069 104.141h-43.116a8.085 8.085 0 0 0-7.954 6.638L249.253 409.6h-48.186l16.233-86.579c.932-4.976-2.884-9.574-7.946-9.574a8.086 8.086 0 0 0-7.946 6.595l-6.686 35.663h-47.679l38.454-221.112a12.81 12.81 0 0 1 12.645-10.636h67.686c30.986 0 56.94 24.513 57.528 55.494.604 31.702-25.009 57.685-56.578 57.685h-43.116a8.085 8.085 0 0 0-7.946 6.595l-6.924 36.931c-.932 4.976 2.884 9.574 7.946 9.574a8.086 8.086 0 0 0 7.946-6.595l5.688-30.336h36.406c39.94 0 72.467-32.345 72.756-72.219 22.087 7.879 37.729 29.248 37.729 53.356 0 31.203-25.385 56.59-56.589 56.59z" style="fill:#686769;stroke:#686769"/></svg>