
<svg width="150" height="150" viewBox="0 0 150 150" fill="none" xmlns="http://www.w3.org/2000/svg">
    <g clip-path="url(#clip0_216_393)">
        <path fill-rule="evenodd" clip-rule="evenodd" d="M94.0034 54.3954C94.5966 52.403 94.9067 50.3983 94.845 48.1317C95.4451 47.7429 95.8639 47.0776 95.8502 46.1352C95.7605 40.0431 92.5211 37.2608 88.3554 33.683L88.353 33.681C87.8247 33.2273 87.2816 32.7608 86.7282 32.2732C81.3422 27.5272 77.6102 26.3462 70.1352 27.3822C55.2482 29.4452 51.3642 41.2632 53.5862 54.4812C55.3882 65.2012 64.1412 81.5812 77.7342 77.2622C84.1672 75.2182 87.3392 68.9372 90.1052 63.3492L90.2338 63.0894C91.5227 60.4864 92.6242 58.2618 93.4279 56.1054C93.8805 55.6593 94.0563 55.0319 94.0034 54.3954ZM87.9574 56.7916C86.5689 60.7125 84.4853 64.4763 82.2532 67.5062C73.1942 79.8042 61.4952 66.2762 59.0072 56.3982C58.5756 54.6846 58.2654 52.9321 58.1039 51.1915C58.9001 51.0289 59.6298 50.5088 59.9752 49.5462C61.1052 46.3962 70.4702 46.5412 73.1912 46.7582C75.7558 46.9623 76.4413 48.1043 77.3471 49.6133C77.759 50.2996 78.2166 51.0618 78.9172 51.8462C81.3786 54.6006 84.5281 56.3398 87.9574 56.7916Z" fill="#414042"/>
        <path fill-rule="evenodd" clip-rule="evenodd" d="M37.0702 92.7212C37.8632 88.3945 40.1895 85.0276 47.4185 83.2552C47.7885 82.858 48.4868 82.5655 49.5132 82.5642C53.7852 82.5612 58.0571 82.5572 62.3291 82.5532C70.877 82.5452 79.4253 82.5372 87.9732 82.5372C88.7301 82.5372 89.5011 82.5324 90.2813 82.5276C96.0929 82.4915 102.423 82.4523 107.356 84.3602C112.349 86.2912 113.068 89.0732 113.65 92.3352C114.841 99.0094 114.551 105.749 114.262 112.448L114.261 112.47C114.247 112.799 114.233 113.127 114.219 113.455C114.183 114.31 113.091 114.776 111.727 114.879C100.941 115.693 89.6223 115.463 78.4702 115.237C73.6775 115.14 68.9157 115.043 64.2402 115.03C62.3829 115.025 59.9345 115.15 57.2782 115.284C51.2204 115.592 44.0802 115.954 40.3972 114.965C39.9626 114.849 39.5899 114.783 39.2538 114.725C38.5146 114.596 37.9519 114.497 37.2962 113.95C35.9799 112.852 36.3447 110.629 36.6415 108.821C36.755 108.129 36.8586 107.498 36.8542 107.014C36.8424 105.722 36.7887 104.415 36.7347 103.102C36.5921 99.6324 36.4477 96.1199 37.0702 92.7212ZM50.1818 85.412C54.8553 85.3993 59.667 85.2896 64.5276 85.1788C75.7016 84.924 87.1344 84.6634 97.7372 85.5612C112.279 86.7924 110.702 99.532 109.656 107.983C109.461 109.56 109.234 112.164 109.234 112.164L77.1612 111.649L55.5692 110.867C55.5692 110.867 53.697 110.912 52.5904 110.962C48.7344 111.138 43.8697 111.36 41.8782 109.718C40.9902 108.986 41.3497 107.195 41.6196 105.85C41.7251 105.325 41.8169 104.867 41.8152 104.568C41.8104 103.737 41.7353 102.755 41.6535 101.684C41.2225 96.048 40.6007 87.9175 49.0182 85.9352C49.5307 85.8144 49.9141 85.6301 50.1818 85.412Z" fill="#414042"/>
        <path fill-rule="evenodd" clip-rule="evenodd" d="M75 0.5C33.8548 0.5 0.5 33.8548 0.5 75C0.5 116.145 33.8548 149.5 75 149.5C116.145 149.5 149.5 116.145 149.5 75C149.5 33.8548 116.145 0.5 75 0.5ZM4.5 75C4.5 36.0639 36.0639 4.5 75 4.5C113.936 4.5 145.5 36.0639 145.5 75C145.5 113.936 113.936 145.5 75 145.5C36.0639 145.5 4.5 113.936 4.5 75Z" fill="#414042"/>
    </g>
    <defs>
        <clipPath id="clip0_216_393">
            <rect width="150" height="150" fill="white"/>
        </clipPath>
    </defs>
</svg>
