
<svg width="150" height="150" viewBox="0 0 150 150" fill="none" xmlns="http://www.w3.org/2000/svg">
    <g clip-path="url(#clip0_118_101)">
        <path fill-rule="evenodd" clip-rule="evenodd" d="M81.9678 43.1354L73.2619 60.5462C73.0517 60.7295 72.9189 60.9993 72.9189 61.3V80.2632C68.4131 78.099 62.9048 77.0039 56.9651 77.0039C41.7781 77.0039 29.4111 84.1629 29.4111 98.0489C29.4111 111.935 41.7781 120.613 56.9651 120.613C66.8892 120.613 75.6091 116.907 80.4609 110.464H123.04C123.592 110.464 124.04 110.016 124.04 109.464V61.3C124.04 60.9717 123.882 60.6804 123.637 60.4981L113.699 43.1053V38.2C113.699 37.6477 113.251 37.2 112.699 37.2H82.9678C82.4155 37.2 81.9678 37.6477 81.9678 38.2V43.1354ZM84.5191 98.0489C84.5191 101.959 83.5382 105.457 81.7896 108.464H102.65V62.3H74.9189V81.3341C80.7927 84.8311 84.5191 90.4265 84.5191 98.0489ZM75.621 60.3H103.116L111.081 44.3711H83.586L75.621 60.3ZM105.352 60.3H121.221L112.758 45.4895L105.352 60.3ZM104.65 62.3V108.464H122.04V62.3H104.65ZM59.1979 82.0879C59.1979 82.0879 56.5189 77.2659 50.4469 77.6229C50.4469 77.6229 54.3759 79.9449 54.7329 83.3379C54.7329 83.3379 50.4469 80.6589 45.9819 83.8739C45.9819 83.8739 52.0539 84.2309 53.1249 85.1239C53.1249 85.1239 48.8389 91.5529 50.9819 94.2319C50.9819 94.2319 52.7679 88.8749 55.4469 87.2669C55.4469 87.2669 60.9829 89.2309 60.0899 93.1599C60.0899 93.1599 63.1259 90.4809 60.2689 86.5519C60.2689 86.5519 62.9479 84.9449 65.9839 87.4449C65.9839 87.4449 66.5199 83.5159 60.6269 83.5159C60.6269 83.5159 64.3769 80.4799 67.9489 80.8369C67.9489 80.6589 63.1269 77.6229 59.1979 82.0879ZM83.9678 42.3709V39.2H111.699V42.3709H83.9678Z" fill="#414042"/>
        <path fill-rule="evenodd" clip-rule="evenodd" d="M75 0.5C33.8548 0.5 0.5 33.8548 0.5 75C0.5 116.145 33.8548 149.5 75 149.5C116.145 149.5 149.5 116.145 149.5 75C149.5 33.8548 116.145 0.5 75 0.5ZM4.5 75C4.5 36.0639 36.0639 4.5 75 4.5C113.936 4.5 145.5 36.0639 145.5 75C145.5 113.936 113.936 145.5 75 145.5C36.0639 145.5 4.5 113.936 4.5 75Z" fill="#414042"/>
    </g>
    <defs>
        <clipPath id="clip0_118_101">
            <rect width="150" height="150" fill="white"/>
        </clipPath>
    </defs>
</svg>